<mxfile host="Electron" agent="Mozilla/5.0 (Windows NT 10.0; Win64; x64) AppleWebKit/537.36 (KHTML, like Gecko) draw.io/28.0.6 Chrome/138.0.7204.100 Electron/37.2.3 Safari/537.36" version="28.0.6">
  <diagram name="Trang-1" id="yEYOKzl7yswpx7leSmGt">
    <mxGraphModel dx="1042" dy="626" grid="1" gridSize="10" guides="1" tooltips="1" connect="1" arrows="1" fold="1" page="1" pageScale="1" pageWidth="827" pageHeight="1169" math="0" shadow="0">
      <root>
        <mxCell id="0" />
        <mxCell id="1" parent="0" />
        <mxCell id="VJPoYln6cMo6xnhO8K4z-2" style="edgeStyle=orthogonalEdgeStyle;rounded=0;orthogonalLoop=1;jettySize=auto;html=1;entryX=0.5;entryY=0;entryDx=0;entryDy=0;" edge="1" parent="1" source="VJPoYln6cMo6xnhO8K4z-1" target="VJPoYln6cMo6xnhO8K4z-3">
          <mxGeometry relative="1" as="geometry">
            <mxPoint x="390" y="160" as="targetPoint" />
          </mxGeometry>
        </mxCell>
        <mxCell id="VJPoYln6cMo6xnhO8K4z-1" value="Start" style="ellipse;whiteSpace=wrap;html=1;fillColor=#60a917;fontColor=#ffffff;strokeColor=#2D7600;" vertex="1" parent="1">
          <mxGeometry x="330" y="30" width="120" height="80" as="geometry" />
        </mxCell>
        <mxCell id="VJPoYln6cMo6xnhO8K4z-5" style="edgeStyle=orthogonalEdgeStyle;rounded=0;orthogonalLoop=1;jettySize=auto;html=1;entryX=0.5;entryY=0;entryDx=0;entryDy=0;" edge="1" parent="1" source="VJPoYln6cMo6xnhO8K4z-3" target="VJPoYln6cMo6xnhO8K4z-4">
          <mxGeometry relative="1" as="geometry" />
        </mxCell>
        <mxCell id="VJPoYln6cMo6xnhO8K4z-3" value="Nhập thông tin cá nhân như tên, email và mật khẩu" style="shape=parallelogram;perimeter=parallelogramPerimeter;whiteSpace=wrap;html=1;fixedSize=1;" vertex="1" parent="1">
          <mxGeometry x="275" y="170" width="230" height="70" as="geometry" />
        </mxCell>
        <mxCell id="VJPoYln6cMo6xnhO8K4z-14" style="edgeStyle=orthogonalEdgeStyle;rounded=0;orthogonalLoop=1;jettySize=auto;html=1;" edge="1" parent="1" source="VJPoYln6cMo6xnhO8K4z-4" target="VJPoYln6cMo6xnhO8K4z-7">
          <mxGeometry relative="1" as="geometry" />
        </mxCell>
        <mxCell id="VJPoYln6cMo6xnhO8K4z-16" style="edgeStyle=orthogonalEdgeStyle;rounded=0;orthogonalLoop=1;jettySize=auto;html=1;entryX=0.5;entryY=0;entryDx=0;entryDy=0;" edge="1" parent="1" source="VJPoYln6cMo6xnhO8K4z-4" target="VJPoYln6cMo6xnhO8K4z-9">
          <mxGeometry relative="1" as="geometry" />
        </mxCell>
        <mxCell id="VJPoYln6cMo6xnhO8K4z-4" value="Kiểm tra thông tin đã hợp lệ chưa" style="rounded=0;whiteSpace=wrap;html=1;" vertex="1" parent="1">
          <mxGeometry x="290" y="290" width="200" height="70" as="geometry" />
        </mxCell>
        <mxCell id="VJPoYln6cMo6xnhO8K4z-20" style="edgeStyle=orthogonalEdgeStyle;rounded=0;orthogonalLoop=1;jettySize=auto;html=1;" edge="1" parent="1" source="VJPoYln6cMo6xnhO8K4z-7" target="VJPoYln6cMo6xnhO8K4z-10">
          <mxGeometry relative="1" as="geometry" />
        </mxCell>
        <mxCell id="VJPoYln6cMo6xnhO8K4z-7" value="Nếu đúng" style="rhombus;whiteSpace=wrap;html=1;" vertex="1" parent="1">
          <mxGeometry x="210" y="450" width="90" height="80" as="geometry" />
        </mxCell>
        <mxCell id="VJPoYln6cMo6xnhO8K4z-9" value="Nếu sai" style="rhombus;whiteSpace=wrap;html=1;" vertex="1" parent="1">
          <mxGeometry x="470" y="450" width="90" height="90" as="geometry" />
        </mxCell>
        <mxCell id="VJPoYln6cMo6xnhO8K4z-10" value="Đăng ký tài khoản" style="rounded=0;whiteSpace=wrap;html=1;" vertex="1" parent="1">
          <mxGeometry x="195" y="580" width="120" height="60" as="geometry" />
        </mxCell>
        <mxCell id="VJPoYln6cMo6xnhO8K4z-18" style="edgeStyle=orthogonalEdgeStyle;rounded=0;orthogonalLoop=1;jettySize=auto;html=1;entryX=1;entryY=0.5;entryDx=0;entryDy=0;" edge="1" parent="1" source="VJPoYln6cMo6xnhO8K4z-11" target="VJPoYln6cMo6xnhO8K4z-3">
          <mxGeometry relative="1" as="geometry">
            <Array as="points">
              <mxPoint x="650" y="220" />
              <mxPoint x="495" y="220" />
            </Array>
          </mxGeometry>
        </mxCell>
        <mxCell id="VJPoYln6cMo6xnhO8K4z-11" value="Thông báo lỗi" style="rounded=0;whiteSpace=wrap;html=1;" vertex="1" parent="1">
          <mxGeometry x="590" y="370" width="120" height="60" as="geometry" />
        </mxCell>
        <mxCell id="VJPoYln6cMo6xnhO8K4z-12" style="edgeStyle=orthogonalEdgeStyle;rounded=0;orthogonalLoop=1;jettySize=auto;html=1;entryX=0.5;entryY=1.167;entryDx=0;entryDy=0;entryPerimeter=0;" edge="1" parent="1" source="VJPoYln6cMo6xnhO8K4z-9" target="VJPoYln6cMo6xnhO8K4z-11">
          <mxGeometry relative="1" as="geometry" />
        </mxCell>
        <mxCell id="VJPoYln6cMo6xnhO8K4z-19" value="Yêu cầu nhập lại" style="text;html=1;align=center;verticalAlign=middle;whiteSpace=wrap;rounded=0;" vertex="1" parent="1">
          <mxGeometry x="650" y="240" width="60" height="30" as="geometry" />
        </mxCell>
        <mxCell id="VJPoYln6cMo6xnhO8K4z-21" value="End" style="ellipse;whiteSpace=wrap;html=1;fillColor=#a20025;fontColor=#ffffff;strokeColor=#6F0000;" vertex="1" parent="1">
          <mxGeometry x="340" y="700" width="120" height="80" as="geometry" />
        </mxCell>
        <mxCell id="VJPoYln6cMo6xnhO8K4z-22" value="" style="endArrow=classic;html=1;rounded=0;exitX=0.5;exitY=1;exitDx=0;exitDy=0;entryX=0.5;entryY=0;entryDx=0;entryDy=0;" edge="1" parent="1" source="VJPoYln6cMo6xnhO8K4z-10" target="VJPoYln6cMo6xnhO8K4z-21">
          <mxGeometry width="50" height="50" relative="1" as="geometry">
            <mxPoint x="390" y="510" as="sourcePoint" />
            <mxPoint x="440" y="460" as="targetPoint" />
          </mxGeometry>
        </mxCell>
      </root>
    </mxGraphModel>
  </diagram>
</mxfile>
